<svg width="70" height="70" viewBox="0 0 70 70" fill="none" xmlns="http://www.w3.org/2000/svg">
<path d="M17.1307 19.6326C16.625 19.7509 16.9478 19.7294 16.5281 19.7832C14.7311 20.1706 16.0654 20.5149 17.1307 19.6326ZM48.7344 20.3535C48.8635 20.2675 49.3154 19.8263 47.9058 19.3958C47.9919 19.837 47.6153 19.794 47.6153 20.0415C48.659 20.9884 49.0895 22.6348 50.4238 22.9791C50.682 21.7954 49.2401 21.2144 48.7344 20.3535ZM16.173 19.2882C16.3344 20.2459 17.0554 18.2768 17.0662 17.5773C16.7864 17.7387 16.5066 17.9001 16.2161 18.0293C16.894 18.3736 16.3022 18.7395 15.5704 19.2882C14.0855 21.1391 16.9586 17.8463 16.173 19.2882ZM34.5843 7.30103C19.3689 7.30103 7.03735 19.6326 7.03735 34.848C7.03735 50.0526 19.3689 62.3949 34.5843 62.3949C49.7997 62.3949 62.1312 50.0526 62.1312 34.848C62.1312 19.6326 49.7997 7.30103 34.5843 7.30103ZM35.316 16.5336L35.4451 16.5766C34.9286 17.2437 38.1353 19.1914 35.8325 19.3528C33.6804 19.9662 36.7364 18.7933 35.0685 18.9977C35.9509 17.771 34.3691 17.7495 35.316 16.5336ZM22.2527 18.2983C21.478 17.6526 19.0461 19.1806 19.8962 18.8148C22.0052 17.9862 20.0361 18.9009 20.531 19.8908C20.0791 20.827 20.3804 18.9654 19.2613 20.0738C18.4543 20.2567 16.4743 22.086 16.7218 21.5264C16.6573 22.398 14.3653 23.431 14.0532 24.8837C13.3 26.8959 13.8703 24.8084 13.7304 24.0229C12.6543 22.6563 10.6959 26.3364 11.277 27.7891C12.2562 26.0674 12.1809 27.6061 11.4707 28.3701C12.1916 29.6937 10.8143 31.4153 12.1809 32.3946C12.7835 32.5344 13.9886 30.3716 13.4614 32.6205C13.8272 30.6729 14.4729 33.0832 15.5166 32.5452C15.5812 33.5675 16.2161 33.094 16.356 34.3314C18.0992 34.2023 19.6917 37.1507 17.6149 37.7103C17.927 37.6242 18.5403 38.173 19.2505 37.7533C20.4557 38.711 23.6301 38.8293 23.7162 41.1967C21.5318 42.2404 23.1781 45.1027 21.2843 46.125C19.1107 45.8022 20.5418 48.8043 19.6272 48.46C19.993 50.6229 17.432 48.1802 18.422 49.3747C20.2405 50.4937 17.6257 50.2678 18.4435 51.0856C17.5289 50.8919 19.0138 52.7857 19.2613 53.4852C20.5741 55.6158 18.1314 53.0117 17.4105 52.3015C16.7218 50.9242 15.097 48.2878 14.645 46.125C14.3868 42.9829 11.9549 40.8738 11.3954 37.8071C10.8358 36.0962 12.9341 33.3522 11.8043 32.3946C10.8251 31.6306 11.2232 29.0158 10.6421 27.6384C12.0948 21.3435 16.7111 16.0386 22.2527 12.8965C21.6824 13.3162 25.5132 11.8097 25.072 12.1755C24.9536 12.4446 27.3102 11.1533 28.7306 10.9596C28.5799 10.9811 25.0397 12.2509 26.0189 12.0787C24.5017 12.8212 25.8683 12.4015 26.6215 12.0249C25.115 13.1332 23.9529 12.8212 22.242 13.8004C20.5203 14.2523 20.8754 16.0386 19.6487 16.9317C20.3696 17.0608 22.1774 15.0701 23.2319 14.3707C25.6531 13.1978 22.0052 16.5013 24.308 15.0809C23.5332 15.8018 23.6946 16.9532 23.2212 17.276C22.9844 17.2115 24.1573 17.8356 22.2527 18.2983ZM26.0189 13.3484C25.7714 13.682 25.4271 14.403 25.2226 13.9618C24.9429 14.1017 24.8353 14.7043 24.308 14.22C24.62 13.9941 24.9429 13.456 24.3295 13.7896C24.6093 13.4883 27.1057 12.6382 26.9658 12.3154C27.407 12.0357 27.364 11.8958 26.8582 12.0679C26.6 11.9819 27.4716 11.2501 28.6337 11.1533C28.7951 11.1533 28.8597 11.2609 28.5692 11.2286C26.8152 11.7666 27.5684 11.616 28.7521 11.2286C28.3001 11.4869 27.9881 11.5622 27.9128 11.6806C29.0964 11.2501 27.8482 11.9926 28.1172 11.9388C27.7836 12.111 28.171 12.1648 27.5254 12.4123C27.6437 12.3154 26.4709 13.1117 27.1703 12.875C26.4924 13.5206 26.1911 13.5314 26.0189 13.3484ZM27.0519 14.8872C27.0734 13.8542 28.5584 13.1978 28.3755 13.144C30.2048 12.2831 27.7406 13.1763 29.1825 12.4015C29.7205 12.3477 30.8611 10.626 32.4429 10.5184C34.1861 9.99116 33.3791 10.5507 34.6704 10.0557L34.4121 10.2709C34.1861 10.3032 34.4659 10.7013 33.6481 11.3039C33.562 12.2401 32.0878 11.8097 32.8196 12.8104C32.3461 12.1325 31.6359 12.7889 32.529 12.8535C31.5713 13.5852 29.3439 13.7143 28.2786 14.9302C27.5899 15.9202 26.9551 15.6081 27.0519 14.8872ZM34.7026 18.3306C33.9709 20.0953 33.2607 18.0723 34.552 17.7495C34.8748 17.9217 35.0039 17.9755 34.7026 18.3306ZM31.948 14.8011C31.7327 14.0048 31.9049 14.4245 33.1854 14.0479C34.0678 14.6827 32.3999 15.1024 31.948 14.8011ZM51.984 46.3832C50.9726 44.64 53.2107 43.0259 53.964 41.5625C53.8671 43.2734 53.6519 44.9628 51.984 46.3832ZM55.7933 26.4655C54.6957 26.5516 53.7057 26.8098 52.7158 26.1857C50.4345 23.6893 53.1354 29.005 53.8887 26.8314C56.6003 27.8644 53.8456 32.3192 52.1347 31.8565C51.177 29.7905 49.9933 27.52 47.9058 26.5086C49.5091 28.284 50.3054 30.4684 52.0271 32.0717C52.1455 34.3099 54.4159 31.2539 54.276 32.9864C54.4912 35.967 50.908 37.7533 51.5321 40.7447C52.8664 43.4671 48.9603 43.9621 49.4015 46.4048C47.8305 48.1587 46.1518 50.526 43.3326 50.1494C43.3326 48.6645 42.5793 47.4055 42.4072 45.8775C40.8792 43.9406 44.0213 41.8638 42.0736 39.8408C39.8247 39.3351 42.5363 36.2361 40.2228 36.5266C38.8347 35.1385 36.8009 36.4836 34.8103 36.4943C32.3138 36.731 29.742 33.4276 30.8504 31.0925C29.968 28.6607 33.6481 27.9505 33.745 25.8091C35.5097 24.3349 38.0169 24.5179 40.4057 24.1735C40.2336 25.8844 42.0413 25.8952 43.4079 26.4655C44.1719 24.6147 46.55 26.7668 48.1748 25.5939C48.7344 22.8607 46.593 24.5071 45.3663 23.6355C43.8814 21.4619 48.5407 22.5164 48.0565 21.3758C46.2487 21.365 47.2709 19.1484 45.9904 20.3858C47.1418 20.5903 45.786 21.4942 45.8183 20.4611C44.0751 19.9554 45.7537 22.4411 44.8713 22.6778C43.5263 22.1183 44.1611 23.3127 44.301 23.4956C43.72 24.7546 43.0098 21.6448 41.3634 21.7309C39.7278 20.2352 40.7178 22.4088 42.1382 22.7639C41.8369 22.85 42.3103 24.0874 41.9337 23.5602C40.7608 21.9461 38.5334 20.87 37.2098 22.85C37.07 24.7008 33.3038 25.2281 33.9064 23.0652C33.024 20.827 36.6395 23.0006 36.306 21.2144C33.9817 19.6756 36.9408 20.1706 37.7264 18.7287C39.5126 18.7825 37.8017 17.2653 38.641 16.8241C38.5549 18.4704 40.0076 18.1584 41.159 17.8463C40.8792 16.8994 41.8476 16.9317 41.2558 16.1462C43.9244 15.0809 39.2221 16.6412 40.169 14.3061C39.0176 13.5098 39.6848 16.0601 40.169 16.3291C40.2013 17.1146 39.5341 18.0831 38.6195 16.4367C37.2852 17.3083 37.4251 15.5543 37.339 15.7373C37.1883 15.0594 38.3505 15.0271 38.3612 13.8434C38.2644 13.0902 38.2859 12.692 38.8239 12.649C38.867 12.7566 41.0298 12.7889 41.7938 13.682C39.7063 13.2624 41.4818 14.0263 42.4179 14.4568C41.4172 13.6713 42.8161 14.4568 41.9983 13.5636C42.3211 13.6282 41.1052 12.3369 42.3534 13.4668C41.6755 12.6598 43.6769 12.8965 42.4933 12.2939C44.2257 12.7781 43.2035 12.3369 42.1812 11.8958C39.362 10.2171 47.1633 14.1662 43.9782 12.4123C46.012 12.8535 39.631 10.8412 42.5363 11.7236C41.428 11.2394 42.504 11.5084 43.5048 11.8204C41.7077 11.2609 39.0176 10.2171 39.1252 10.1741C39.7493 10.2171 40.3627 10.357 40.9545 10.5292C42.7946 11.078 40.4272 10.4001 40.933 10.4108C47.2602 12.0357 52.8018 16.2753 56.1699 21.817C56.9554 22.6455 59.0967 28.1226 57.9776 25.6908C58.4834 27.6276 58.5587 29.7152 58.8277 31.6951C58.2682 31.071 57.6441 28.7683 57.106 27.4878C56.8801 27.9827 56.6218 26.7883 55.7933 26.4655Z" fill="white"/>
</svg>
