<svg width="69" height="70" viewBox="0 0 69 70" fill="none" xmlns="http://www.w3.org/2000/svg">
<path d="M61.8141 31.2878L37.5203 6.02978L35.892 4.33589C35.5209 3.95249 35.0192 3.7373 34.4962 3.7373C33.9732 3.7373 33.4715 3.95249 33.1005 4.33589L7.17835 31.2878C6.79817 31.6817 6.4977 32.1509 6.2947 32.6676C6.09169 33.1843 5.99024 33.7381 5.99635 34.2962C6.0215 36.5983 7.86365 38.4361 10.0767 38.4361H12.7488V59.7373H56.2436V38.4361H58.9723C60.0474 38.4361 61.0596 37.9979 61.8204 37.2066C62.1949 36.8182 62.4917 36.3563 62.6936 35.8478C62.8954 35.3392 62.9982 34.7941 62.9961 34.2439C62.9961 33.1321 62.5748 32.0791 61.8141 31.2878ZM38.017 55.0284H30.9754V41.6866H38.017V55.0284ZM51.7168 33.7272V55.0284H42.0408V40.1169C42.0408 38.6716 40.9154 37.5009 39.526 37.5009H29.4665C28.077 37.5009 26.9516 38.6716 26.9516 40.1169V55.0284H17.2756V33.7272H11.2399L34.5025 9.54837L35.9548 11.0591L57.7588 33.7272H51.7168Z" fill="white"/>
</svg>
