<svg width="70" height="70" viewBox="0 0 70 70" fill="none" xmlns="http://www.w3.org/2000/svg">
<path d="M44.2534 5.29785H9.04102V64.3985H61.1298V22.2121L44.2534 5.29785ZM57.1985 60.4585H12.9722V9.2379H42.6251L57.1985 23.844V60.4585Z" fill="white"/>
<path d="M32.8625 23.3281C31.1744 23.3272 29.5095 23.7316 28.0017 24.5089C26.494 25.2862 25.1853 26.4147 24.1809 27.8038C23.1765 29.1928 22.5043 30.8037 22.2184 32.507C21.9325 34.2103 22.0409 35.9585 22.5347 37.6111C23.0286 39.2638 23.8942 40.7748 25.062 42.0228C26.2298 43.2708 27.6673 44.221 29.259 44.797C30.8506 45.373 32.552 45.5588 34.2265 45.3394C35.901 45.12 37.5019 44.5016 38.9006 43.5339L46.5608 51.3759L49.1086 48.7677L41.5081 40.9867C42.7071 39.3447 43.4361 37.3934 43.6135 35.3513C43.7908 33.3092 43.4094 31.2569 42.5121 29.4241C41.6148 27.5913 40.2369 26.0503 38.5326 24.9737C36.8284 23.8971 34.8651 23.3273 32.8625 23.3281ZM25.6718 34.3785C25.6717 32.9224 26.0935 31.4991 26.8836 30.2885C27.6737 29.0779 28.7968 28.1343 30.1108 27.5771C31.4247 27.0199 32.8706 26.8741 34.2655 27.1581C35.6604 27.4422 36.9417 28.1433 37.9473 29.1729C38.953 30.2024 39.6379 31.5141 39.9153 32.9422C40.1928 34.3702 40.0504 35.8504 39.5061 37.1956C38.9618 38.5407 38.0401 39.6905 36.8576 40.4994C35.675 41.3083 34.2848 41.74 32.8625 41.74C30.9561 41.7378 29.1283 40.9615 27.7803 39.5814C26.4322 38.2013 25.6739 36.3302 25.6718 34.3785Z" fill="white"/>
</svg>
