<svg width="70" height="70" viewBox="0 0 70 70" fill="none" xmlns="http://www.w3.org/2000/svg">
<path d="M36.6581 31.6551C35.2758 31.3095 33.8934 30.6183 32.8567 29.5815C31.8199 29.236 31.4743 28.1992 31.4743 27.508C31.4743 26.8168 31.8199 25.7801 32.5111 25.4345C33.5478 24.7433 34.5846 24.0521 35.6214 24.3977C37.6949 24.3977 39.4228 25.4345 40.4596 26.8168L43.5699 22.6698C42.5331 21.633 41.4964 20.9418 40.4596 20.2506C39.4228 19.5595 38.0405 19.2139 36.6581 19.2139V14.3756H32.5111V19.2139C30.7831 19.5595 29.0552 20.5962 27.6728 21.9786C26.2905 23.7065 25.2537 25.7801 25.5993 27.8536C25.5993 29.9271 26.2905 32.0007 27.6728 33.383C29.4008 35.111 31.8199 36.1477 33.8934 37.1845C34.9302 37.5301 36.3125 38.2213 37.3493 38.9124C38.0405 39.6036 38.3861 40.6404 38.3861 41.6772C38.3861 42.7139 38.0405 43.7507 37.3493 44.7875C36.3125 45.8242 34.9302 46.1698 33.8934 46.1698C32.5111 46.1698 30.7831 45.8242 29.7464 44.7875C28.7096 44.0963 27.6728 43.0595 26.9816 42.0227L23.5258 45.8242C24.5625 47.2066 25.5993 48.2433 26.9816 49.2801C28.7096 50.3169 30.7831 51.3536 32.8567 51.3536V55.8463H36.6581V50.6625C38.7317 50.3169 40.4596 49.2801 41.842 47.8977C43.5699 46.1698 44.6067 43.4051 44.6067 40.986C44.6067 38.9124 43.9155 36.4933 42.1875 35.111C40.4596 33.383 38.7317 32.3463 36.6581 31.6551ZM34.5846 7.46387C19.3787 7.46387 6.9375 19.9051 6.9375 35.111C6.9375 50.3169 19.3787 62.7581 34.5846 62.7581C49.7905 62.7581 62.2317 50.3169 62.2317 35.111C62.2317 19.9051 49.7905 7.46387 34.5846 7.46387ZM34.5846 58.9566C21.4522 58.9566 10.739 48.2433 10.739 35.111C10.739 21.9786 21.4522 11.2653 34.5846 11.2653C47.717 11.2653 58.4302 21.9786 58.4302 35.111C58.4302 48.2433 47.717 58.9566 34.5846 58.9566Z" fill="white"/>
</svg>
