<svg width="159" height="37" viewBox="0 0 159 37" fill="none" xmlns="http://www.w3.org/2000/svg">
<g clip-path="url(#clip0_2_1709)">
<path d="M9.47648 28.6303L7.38775 29.0893C7.21611 28.6303 6.78692 28.4008 6.07158 28.4008C5.58516 28.4008 5.32766 28.5442 5.32766 28.8311C5.32766 29.0893 5.55657 29.2328 6.04299 29.3188C7.01578 29.4909 7.70253 29.6631 8.10309 29.8639C8.50369 30.0647 8.81842 30.3229 9.0187 30.6385C9.21898 30.9541 9.33343 31.2984 9.33343 31.7C9.33343 32.4172 9.04729 33.0197 8.44646 33.5074C7.84558 33.9951 6.95861 34.2246 5.72826 34.2246C4.84125 34.2246 4.04009 34.0525 3.38201 33.7083C2.72391 33.364 2.29472 32.8189 2.12305 32.1303L4.32622 31.8148C4.4979 32.3312 4.98431 32.5894 5.81407 32.5894C6.12881 32.5894 6.35773 32.532 6.52941 32.4459C6.67246 32.3598 6.75828 32.2451 6.75828 32.1303C6.75828 32.0156 6.70105 31.9295 6.61523 31.8721C6.50077 31.8148 6.24327 31.7574 5.84272 31.6426C5.01292 31.4418 4.44067 31.2984 4.0687 31.1549C3.72535 31.0115 3.41061 30.782 3.18171 30.4377C2.95281 30.0934 2.80975 29.7491 2.80975 29.3188C2.80975 28.6016 3.09588 27.9991 3.66813 27.5401C4.24038 27.0811 5.01292 26.8516 5.98576 26.8516C6.87274 26.8516 7.6453 27.0237 8.27477 27.368C8.90424 27.6835 9.30479 28.1139 9.47648 28.6303Z" fill="white"/>
<path d="M24.4974 26.9941L21.1211 34.1664C20.6347 35.2279 20.1196 35.8878 19.6046 36.1746C19.0896 36.4615 18.4601 36.605 17.7448 36.605C17.3728 36.605 17.0009 36.5763 16.6289 36.4902V34.5967C17.2298 34.6541 17.659 34.6828 17.9451 34.6828C18.6604 34.6828 19.0324 34.482 19.0324 34.109C19.0324 34.023 19.0037 33.8508 18.9465 33.65L17.2298 27.0228H20.0338L20.6347 29.863C20.7491 30.3508 20.8063 30.6377 20.8063 30.7811C20.8636 30.6951 20.8922 30.5803 20.978 30.4369C21.0352 30.2934 21.0925 30.1786 21.1497 30.0352L22.5517 27.0515H24.4974V26.9941Z" fill="white"/>
<path d="M38.174 28.6301L36.0853 29.0891C35.9136 28.6301 35.4844 28.4005 34.7691 28.4005C34.2827 28.4005 34.0252 28.544 34.0252 28.8309C34.0252 29.0891 34.2541 29.2325 34.7405 29.3186C35.7133 29.4907 36.4 29.6628 36.8006 29.8637C37.2012 30.0645 37.516 30.3227 37.7162 30.6382C37.9165 30.9539 38.031 31.2981 38.031 31.6998C38.031 32.417 37.7448 33.0195 37.144 33.5072C36.5431 33.9949 35.6561 34.2244 34.4258 34.2244C33.5388 34.2244 32.7376 34.0523 32.0795 33.708C31.4214 33.3637 30.9922 32.8186 30.8206 32.1301L33.0237 31.8145C33.1954 32.3309 33.6818 32.5891 34.5116 32.5891C34.8263 32.5891 35.0553 32.5317 35.2269 32.4457C35.37 32.3596 35.4558 32.2448 35.4558 32.1301C35.4558 32.0153 35.3986 31.9293 35.3128 31.8719C35.1983 31.8145 34.9408 31.7571 34.5402 31.6424C33.7104 31.4416 33.1382 31.2981 32.7662 31.1547C32.4229 31.0112 32.1081 30.7817 31.8792 30.4374C31.6504 30.0932 31.5073 29.7489 31.5073 29.3186C31.5073 28.6014 31.7934 27.9989 32.3656 27.5398C32.9379 27.0808 33.7104 26.8513 34.6833 26.8513C35.5703 26.8513 36.3428 27.0234 36.9723 27.3677C37.6018 27.6833 38.0023 28.1136 38.174 28.6301Z" fill="white"/>
<path d="M51.1057 26.9927L50.791 28.8001H49.5034L49.0742 31.3248C49.0456 31.5829 49.0169 31.7264 49.0169 31.7838C49.0169 32.1281 49.2459 32.3002 49.6751 32.3002C49.8753 32.3002 50.0756 32.2715 50.3332 32.2141L50.0184 34.0502C49.5034 34.165 49.0456 34.2224 48.5592 34.2224C47.9869 34.2224 47.5577 34.1363 47.2716 33.9928C46.9854 33.8494 46.7566 33.6486 46.5849 33.3904C46.4132 33.1322 46.3274 32.7879 46.3274 32.3289C46.3274 32.1568 46.356 31.8125 46.4418 31.2961L46.871 28.7714H45.8982L46.1843 26.9641H47.1571L47.5577 24.8698L50.1043 24.8124L49.7323 26.9641H51.1057V26.9927Z" fill="white"/>
<path d="M65.9025 31.0399H61.0383C61.0094 31.2408 61.0094 31.3843 61.0094 31.4703C61.0094 31.7859 61.0956 32.0154 61.2958 32.1875C61.496 32.3597 61.7535 32.4457 62.0399 32.4457C62.6117 32.4457 63.0127 32.1588 63.2413 31.5564L65.6161 31.9293C65.3013 32.6179 64.8152 33.1916 64.1284 33.622C63.4415 34.0523 62.669 34.2532 61.8392 34.2532C60.7808 34.2532 59.9221 33.9663 59.293 33.3638C58.6346 32.7613 58.3203 31.958 58.3203 30.8965C58.3203 29.7777 58.7208 28.8022 59.4933 27.9989C60.2658 27.1956 61.2669 26.794 62.526 26.794C63.585 26.794 64.4148 27.1096 65.0438 27.7407C65.6734 28.3719 65.9882 29.2039 65.9882 30.2367C65.9882 30.4662 65.9598 30.7531 65.9025 31.0399ZM63.3558 29.6916C63.3842 29.5481 63.3848 29.4334 63.3848 29.3473C63.3848 29.0891 63.2986 28.8883 63.1556 28.6874C63.0127 28.4866 62.7836 28.4006 62.4977 28.4006C62.2113 28.4006 61.9254 28.5153 61.6963 28.7448C61.4677 28.9743 61.2958 29.29 61.2385 29.6916H63.3558Z" fill="white"/>
<path d="M74.8315 26.9948H77.2353L77.0634 28.0849C77.5784 27.2243 78.3226 26.7939 79.238 26.7939C80.1251 26.7939 80.7258 27.2243 81.0406 28.0849C81.4983 27.253 82.2141 26.8226 83.1579 26.8226C83.7875 26.8226 84.2741 26.9948 84.6462 27.339C85.0177 27.6833 85.2179 28.171 85.2179 28.7735C85.2179 28.9743 85.1896 29.2038 85.1612 29.462L84.3887 34.0523H81.6991L82.4143 29.8637C82.4427 29.6628 82.4716 29.4907 82.4716 29.376C82.4716 28.9743 82.2714 28.7735 81.8993 28.7735C81.6702 28.7735 81.4699 28.8596 81.327 29.0317C81.184 29.2038 81.0695 29.5481 80.9833 30.0358L80.297 34.081H77.693L78.4082 29.8923C78.4372 29.6342 78.4655 29.462 78.4655 29.3473C78.4655 29.1464 78.4082 28.9743 78.2937 28.8883C78.1796 28.8021 78.0362 28.7448 77.9221 28.7448C77.7787 28.7448 77.6357 28.8022 77.4355 28.9169C77.2353 29.0317 77.0923 29.3473 77.0062 29.8923L76.2909 34.081H73.6875L74.8315 26.9948Z" fill="white"/>
<path d="M100.211 34.0509H97.4362C97.4362 33.9075 97.4072 33.7927 97.4072 33.7354C97.4072 33.5058 97.4362 33.219 97.4645 32.9034C96.9211 33.7927 96.1486 34.2517 95.147 34.2517C94.489 34.2517 93.9451 34.0509 93.5163 33.678C93.1153 33.2763 92.8867 32.8173 92.8867 32.2148C92.8867 31.7845 93.0013 31.3829 93.2299 31.0099C93.459 30.637 93.7738 30.3501 94.1742 30.1492C94.5747 29.9484 95.004 29.8049 95.4334 29.7189C95.8622 29.6615 96.692 29.5467 97.9512 29.432C98.0084 29.2599 98.0368 29.1164 98.0368 29.0304C98.0368 28.6287 97.7793 28.4565 97.2359 28.4565C96.692 28.4565 96.3199 28.7148 96.0624 29.2599L93.7738 28.8008C94.3461 27.4811 95.6336 26.8213 97.608 26.8213C98.6091 26.8213 99.3816 26.9934 99.9828 27.3377C100.583 27.6819 100.841 28.1983 100.841 28.8869C100.841 29.2025 100.669 30.264 100.326 32.1001C100.211 32.7886 100.126 33.2477 100.126 33.4772C100.126 33.6206 100.154 33.8214 100.211 34.0509ZM97.722 30.6943C96.4345 30.7804 95.8049 31.2107 95.8049 31.9279C95.8049 32.3296 96.0057 32.5304 96.4345 32.5304C96.692 32.5304 96.9784 32.4156 97.2359 32.1861C97.4645 31.9279 97.6364 31.4402 97.722 30.6943Z" fill="white"/>
<path d="M113.887 26.9929L113.572 28.8002H112.285L111.855 31.3249C111.827 31.5831 111.799 31.7265 111.799 31.7839C111.799 32.1282 112.027 32.3003 112.457 32.3003C112.657 32.3003 112.857 32.2716 113.115 32.2143L112.8 34.0503C112.285 34.1651 111.827 34.2225 111.34 34.2225C110.768 34.2225 110.339 34.1364 110.053 33.9929C109.767 33.8495 109.538 33.6487 109.367 33.3905C109.195 33.1323 109.109 32.788 109.109 32.329C109.109 32.1569 109.137 31.8126 109.223 31.2962L109.652 28.7716H108.68L108.966 26.9642H109.939L110.339 24.8699L112.885 24.8125L112.514 26.9642H113.887V26.9929Z" fill="white"/>
<path d="M124.844 26.994L123.671 34.0802H120.924L122.097 26.994H124.844ZM125.301 24.2686L124.958 26.3629H122.211L122.555 24.2686H125.301Z" fill="white"/>
<path d="M137.088 31.3262L139.205 31.8426C138.833 32.7606 138.318 33.3918 137.717 33.7361C137.088 34.0804 136.458 34.2525 135.8 34.2525C134.827 34.2525 134.026 33.9369 133.425 33.3345C132.796 32.7033 132.51 31.9287 132.51 30.9533C132.51 29.8344 132.881 28.859 133.597 28.0269C134.312 27.1663 135.285 26.7646 136.487 26.7646C137.345 26.7646 138.089 27.0228 138.69 27.5392C139.291 28.0556 139.605 28.7442 139.605 29.5762L137.202 29.863C137.202 29.0885 136.945 28.7155 136.43 28.7155C136 28.7155 135.685 29.0311 135.485 29.6622C135.285 30.2934 135.199 30.8385 135.199 31.2975C135.199 31.986 135.456 32.3303 135.972 32.3303C136.487 32.3016 136.858 31.986 137.088 31.3262Z" fill="white"/>
<path d="M153.971 28.6303L151.882 29.0893C151.711 28.6303 151.281 28.4008 150.566 28.4008C150.079 28.4008 149.822 28.5442 149.822 28.8311C149.822 29.0893 150.051 29.2328 150.537 29.3188C151.51 29.4909 152.197 29.6631 152.597 29.8639C152.998 30.0647 153.313 30.3229 153.513 30.6385C153.713 30.9541 153.828 31.2984 153.828 31.7C153.828 32.4172 153.541 33.0197 152.941 33.5074C152.34 33.9951 151.453 34.2246 150.222 34.2246C149.336 34.2246 148.534 34.0525 147.876 33.7083C147.218 33.364 146.789 32.8189 146.617 32.1303L148.82 31.8148C148.992 32.3312 149.479 32.5894 150.308 32.5894C150.623 32.5894 150.852 32.532 151.024 32.4459C151.167 32.3598 151.252 32.2451 151.252 32.1303C151.252 32.0156 151.196 31.9295 151.109 31.8721C150.995 31.8148 150.737 31.7574 150.337 31.6426C149.507 31.4418 148.935 31.2984 148.563 31.1549C148.22 31.0115 147.905 30.782 147.676 30.4377C147.419 30.1221 147.304 29.7491 147.304 29.3188C147.304 28.6016 147.59 27.9991 148.162 27.5401C148.735 27.0811 149.507 26.8516 150.48 26.8516C151.367 26.8516 152.139 27.0237 152.769 27.368C153.399 27.6835 153.799 28.1139 153.971 28.6303Z" fill="white"/>
<path d="M11.2448 12.1955L16.3664 12.8554C15.7656 14.9497 14.7355 16.671 13.3049 17.9907C11.8456 19.3391 10.0144 19.9989 7.81124 19.9989C5.40777 19.9989 3.51936 19.1957 2.11734 17.5604C0.715318 15.9251 0 13.8308 0 11.2775C0 8.3225 0.85838 5.7118 2.60375 3.44538C4.34912 1.17894 6.75258 0.0313721 9.78551 0.0313721C11.9887 0.0313721 13.7913 0.719914 15.1647 2.0683C16.5381 3.44537 17.2534 5.2241 17.2534 7.46185L11.8742 7.86348C11.8456 6.68726 11.674 5.79786 11.3306 5.2241C10.9873 4.65032 10.415 4.36342 9.58524 4.36342C8.1832 4.36342 7.21041 5.42491 6.69535 7.51922C6.18034 9.61353 5.92283 11.2775 5.92283 12.4824C5.92283 14.4333 6.69535 15.4374 8.21184 15.4374C8.95577 15.4374 9.58524 15.1792 10.043 14.6915C10.5009 14.1464 10.9014 13.3144 11.2448 12.1955Z" fill="white"/>
<path d="M32.0697 5.42285L25.3457 19.7674C24.3443 21.8617 23.3428 23.2101 22.3127 23.7839C21.2827 24.3577 20.0524 24.6446 18.5931 24.6446C17.8778 24.6446 17.1338 24.5585 16.3613 24.4151V20.6281C17.5344 20.7428 18.4214 20.8002 19.0223 20.8002C20.4816 20.8002 21.1969 20.3986 21.1969 19.624C21.1969 19.4232 21.1396 19.1075 21.0252 18.7059L17.6203 5.45154H23.2284L24.4301 11.132C24.659 12.1074 24.7734 12.7099 24.7734 12.9394C24.8593 12.7673 24.9737 12.5378 25.0882 12.2222C25.174 11.964 25.2885 11.6771 25.4315 11.4189L28.2356 5.45154H32.0697V5.42285Z" fill="white"/>
<path d="M39.6847 0.459961L38.5688 7.20191C39.3127 6.31252 39.9707 5.73875 40.543 5.45187C41.1153 5.16497 41.7733 5.02152 42.4887 5.02152C43.8335 5.02152 44.9494 5.50924 45.7505 6.48465C46.5803 7.46011 46.9808 8.86584 46.9808 10.7593C46.9808 13.0831 46.3228 15.1775 45.0352 17.0709C43.7476 18.9644 41.945 19.9111 39.656 19.9111C37.4815 19.9111 35.965 19.0218 35.1066 17.2144L33.5329 19.5956H31.0723L34.2483 0.459961H39.6847ZM37.3098 14.6324C37.3098 15.1488 37.3384 15.5217 37.4242 15.7225C37.5101 15.9233 37.6532 16.0955 37.9107 16.2963C38.1682 16.4685 38.4829 16.5545 38.8549 16.5545C39.3413 16.5545 39.7418 16.4111 40.0852 16.0955C40.4286 15.7799 40.7433 15.0914 41.0581 14.0012C41.3728 12.9397 41.5158 11.7922 41.5158 10.5585C41.5158 9.15272 41.0294 8.43551 40.028 8.43551C39.0838 8.43551 38.3971 9.15272 37.9679 10.5872L37.3098 14.6324Z" fill="white"/>
<path d="M63.3461 13.5401H53.6182C53.5609 13.913 53.5609 14.1999 53.5609 14.4007C53.5609 15.0319 53.7611 15.4909 54.1615 15.8639C54.5625 16.2081 55.0486 16.3803 55.6493 16.3803C56.7939 16.3803 57.5953 15.7778 58.0814 14.6015L62.8311 15.3761C62.2304 16.7532 61.2287 17.8721 59.8556 18.7328C58.4824 19.5934 56.9657 20.0238 55.2778 20.0238C53.1602 20.0238 51.4721 19.4213 50.1559 18.2164C48.8397 17.0114 48.1816 15.3761 48.1816 13.3106C48.1816 11.0728 48.9542 9.12195 50.4992 7.51534C52.0443 5.90874 54.0759 5.10547 56.5653 5.10547C58.6826 5.10547 60.3706 5.73661 61.6297 6.97026C62.8883 8.23255 63.5179 9.86785 63.5179 11.9622C63.5179 12.3925 63.4606 12.9376 63.3461 13.5401ZM58.2822 10.8146C58.3389 10.5277 58.3389 10.2982 58.3389 10.1547C58.3389 9.63834 58.196 9.20801 57.8812 8.83506C57.5664 8.46206 57.1376 8.26124 56.5653 8.26124C55.9641 8.26124 55.4207 8.49075 54.9341 8.94982C54.448 9.40883 54.1615 10.04 54.047 10.8146H58.2822Z" fill="white"/>
<path d="M66.895 5.42448H71.5874L71.0151 8.83846C71.9884 6.28513 73.5045 4.99414 75.5072 4.99414C75.6791 4.99414 75.8793 5.02283 76.1657 5.05152L75.5361 10.1008C75.0495 10.0721 74.7347 10.0721 74.5634 10.0721C73.3899 10.0721 72.5317 10.359 71.9884 10.9041C71.4444 11.4492 71.044 12.4246 70.8149 13.8017L69.8421 19.5682H64.4629L66.895 5.42448Z" fill="white"/>
<path d="M75.9082 19.5643L79.0845 0.428711H86.9525C88.3835 0.428711 89.5565 0.543464 90.472 0.801665C91.3874 1.05987 92.1605 1.57627 92.7611 2.37957C93.3907 3.18286 93.6766 4.10091 93.6766 5.16241C93.6766 6.33865 93.3045 7.31406 92.5609 8.14607C91.8168 8.94935 90.844 9.52312 89.5849 9.78137C91.6738 10.5273 92.7322 11.9043 92.7322 13.9412C92.7322 15.4331 92.2172 16.7241 91.2445 17.843C90.2434 18.9618 88.5838 19.5356 86.2373 19.5356H75.9082V19.5643ZM82.1456 15.347H85.0071C85.8942 15.347 86.4948 15.1462 86.8385 14.7733C87.1817 14.4003 87.3535 13.9986 87.3535 13.5683C87.3535 13.0232 87.1817 12.5929 86.8096 12.2486C86.4375 11.9043 85.8942 11.7609 85.1789 11.7609H82.7752L82.1456 15.347ZM83.4048 7.74444H85.5794C87.3246 7.74444 88.1833 7.17061 88.1833 5.99439C88.1833 4.99027 87.4965 4.47386 86.1227 4.47386H83.9481L83.4048 7.74444Z" fill="white"/>
<path d="M102.06 5.42222L99.6852 19.5659H94.1914L96.5662 5.42222H102.06ZM102.947 0L102.26 4.15992H96.767L97.4533 0H102.947Z" fill="white"/>
<path d="M109.986 19.9951C108.012 19.9951 106.381 19.4213 105.036 18.2451C103.691 17.0688 103.033 15.4622 103.033 13.454C103.033 11.0154 103.806 9.00719 105.351 7.45797C106.896 5.88005 108.87 5.10547 111.217 5.10547C113.391 5.10547 115.108 5.70792 116.367 6.94158C117.626 8.17518 118.284 9.69572 118.284 11.4745C118.284 14.1425 117.454 16.2368 115.823 17.7573C114.192 19.2492 112.247 19.9951 109.986 19.9951ZM110.215 16.5524C111.188 16.5524 111.846 15.8352 112.218 14.372C112.59 12.9089 112.733 11.704 112.733 10.7285C112.733 9.2367 112.189 8.4908 111.102 8.4908C110.129 8.4908 109.471 9.2367 109.099 10.7285C108.727 12.2203 108.555 13.4253 108.555 14.372C108.555 15.8065 109.128 16.5524 110.215 16.5524Z" fill="white"/>
<path d="M121.629 5.42448H126.55L126.178 7.71961C126.55 6.77284 127.179 6.08432 128.038 5.65399C128.896 5.22365 129.812 4.99414 130.785 4.99414C131.986 4.99414 132.959 5.30972 133.703 5.94087C134.447 6.57202 134.819 7.40404 134.819 8.43682C134.819 8.83846 134.762 9.32621 134.676 9.87129L133.074 19.5395H127.694L129.125 11.0475C129.211 10.5024 129.268 10.1582 129.268 9.95736C129.268 9.15403 128.839 8.75239 128.009 8.75239C126.893 8.75239 126.207 9.49834 125.949 11.0188L124.519 19.5108H119.254L121.629 5.42448Z" fill="white"/>
<path d="M143.83 5.42222L141.455 19.5659H135.961L138.336 5.42222H143.83ZM144.745 0L144.058 4.15992H138.564L139.251 0H144.745Z" fill="white"/>
<path d="M154.022 14.086L158.285 15.1475C157.513 16.9836 156.511 18.2459 155.281 18.9632C154.05 19.6804 152.763 20.0246 151.447 20.0246C149.501 20.0246 147.899 19.3935 146.668 18.1598C145.438 16.9262 144.809 15.3196 144.809 13.3974C144.809 11.1884 145.524 9.23757 146.983 7.51621C148.443 5.82354 150.36 4.96289 152.763 4.96289C154.508 4.96289 155.968 5.47928 157.198 6.54081C158.429 7.60228 159.001 8.95069 159.001 10.5859L154.222 11.1597C154.222 9.63921 153.707 8.86462 152.677 8.86462C151.79 8.86462 151.161 9.49577 150.788 10.7581C150.417 12.0204 150.217 13.1106 150.217 14.0286C150.217 15.4057 150.732 16.0943 151.79 16.0943C152.82 16.0656 153.564 15.4057 154.022 14.086Z" fill="white"/>
</g>
<defs>
<clipPath id="clip0_2_1709">
<rect width="159" height="37" fill="white"/>
</clipPath>
</defs>
</svg>
